# xmcd
#
# Track frame offsets: 
#        150
#        21816
#        44764
#        57952
#        71550
#        93508
#        109827
#        122826
#        155005
#        176103
#        189442
#        202320
#        221068
#        232497
#        244880
#        258014
#
# Disc length: 3686 seconds
#
# Revision: 1
# Processed by: cddbd v1.5.1PL2 Copyright (c) Steve Scherf et al.
# Submitted via: ExactAudioCopy v0.95b1
#
DISCID=fb0e6410
DTITLE=Various Artist - Bossa Nova 2005 - Dream Pop
DYEAR=1900
DGENRE=Bossa Nova
TTITLE0=Bebel Gilberto - Samba da Bencao
TTITLE1=Cibelle - Luisas
TTITLE2=Rita Calypso - Only Friends
TTITLE3=Rita Calypso - the end of the world
TTITLE4=Zola - Atlantico
TTITLE5=Camera obscura - Shine like a new pin
TTITLE6=Club 8 - Breakdown
TTITLE7=Heather Duby - For jeffrey
TTITLE8=Damon and Naomi - The mirror phase
TTITLE9=Innocence Mission - Beautiful changes
TTITLE10=Innocence Mission - 500 Miles
TTITLE11=Isobel Campbell - There is no greater gold
TTITLE12=Hope Sandoval - Drop
TTITLE13=Hem - Betting on trains
TTITLE14=Innocence Mission - What a wonderful world
TTITLE15=Bebel Gilberto - Everyday you1ve been away
EXTD=
EXTT0=
EXTT1=
EXTT2=
EXTT3=
EXTT4=
EXTT5=
EXTT6=
EXTT7=
EXTT8=
EXTT9=
EXTT10=
EXTT11=
EXTT12=
EXTT13=
EXTT14=
EXTT15=
PLAYORDER=
